<?xml version="1.0" encoding="utf-8"?>
<!-- Generator: Adobe Illustrator 26.5.0, SVG Export Plug-In . SVG Version: 6.00 Build 0)  -->
<svg version="1.1" id="Layer_2_00000097502050202650477610000001532887839318824615_"
	 xmlns="http://www.w3.org/2000/svg" xmlns:xlink="http://www.w3.org/1999/xlink" x="0px" y="0px" viewBox="0 0 170 70"
	 style="enable-background:new 0 0 170 70;" xml:space="preserve">
<style type="text/css">
	.st0{fill:#FF6600;}
	.st1{fill:#1D1D1B;}
</style>
<g>
	<polygon class="st0" points="1,66.1 164.9,66.1 164.9,67.5 1,67.5 	"/>
	<polygon class="st0" points="144,2.5 163.8,2.5 145.7,21 125.9,21 	"/>
	<polygon class="st0" points="118.3,2.5 138.1,2.5 120,21 100.2,21 	"/>
	<g>
		<path class="st1" d="M83.9,24.2c-2.1,0-3.8,1.7-3.8,3.8v27.6c0,2.1,1.7,3.8,3.8,3.8c2.1,0,3.8-1.7,3.8-3.8V28
			C87.7,25.9,86,24.2,83.9,24.2z"/>
		<path class="st1" d="M75.7,52.7H64.8V28c0-2.1-1.7-3.8-3.8-3.8s-3.8,1.7-3.8,3.8v27.1c0,2.1,1.7,3.8,3.8,3.8h14.8
			c1.7,0,3.1-1.4,3.1-3.1S77.4,52.7,75.7,52.7z"/>
		<path class="st1" d="M52,52.7H39.4V44H52l0,0c1.6-0.1,2.9-1.4,2.9-3s-1.3-2.9-2.9-3l0,0H39.4v-7.3h12.5c1.7,0,3-1.4,3-3
			c0-1.7-1.4-3-3-3H35c-1.7,0-3,1.4-3,3v27.4c0,2.1,1.7,3.8,3.8,3.8H52c1.7,0,3.1-1.4,3.1-3.1S53.7,52.7,52,52.7z"/>
		<path class="st1" d="M127.5,28.2c0-2.2-2.6-3.9-5.8-3.9c-2.9,0-5.3,1.4-5.7,3.3l0,0L110.4,51l-5.6-23.4l0,0
			c-0.4-1.9-2.8-3.2-5.7-3.2c-3.2,0-5.8,1.6-5.8,3.9l0,0V56l0,0c0,1.9,1.5,3.4,3.4,3.4s3.4-1.5,3.4-3.4v-0.1V34l5.9,22.8l0,0
			c0.5,1.5,2.3,2.5,4.4,2.5s3.9-1.1,4.4-2.5l0,0v-0.1c0-0.1,0.1-0.3,0.1-0.4l5.8-22.3v22c0,1.9,1.5,3.4,3.4,3.4s3.4-1.5,3.4-3.4
			L127.5,28.2L127.5,28.2z"/>
		<path class="st1" d="M165.4,31.2c-2,0-3.5-1.6-3.5-3.5c0-2,1.6-3.5,3.5-3.5c2,0,3.5,1.6,3.5,3.5C169,29.6,167.4,31.2,165.4,31.2z
			 M165.4,24.8c-1.6,0-2.9,1.3-2.9,2.9s1.3,2.9,2.9,2.9c1.6,0,2.9-1.3,2.9-2.9C168.3,26.1,167,24.8,165.4,24.8z"/>
		<g>
			<path class="st1" d="M165,41.9c0-11.1-7.5-17.9-16.9-17.9c-9.3,0-16.9,6.8-16.9,17.9c0,11.4,7.5,17.9,16.9,17.9
				C157.5,59.7,165,53.3,165,41.9z M148.1,53.1c-4.8,0-8.8-4.1-8.8-11.3c0-7,3.9-11.3,8.8-11.3s8.8,4.3,8.8,11.3
				C156.9,49,153,53.1,148.1,53.1z"/>
			<path class="st1" d="M148.1,24C148.2,24,148.2,24,148.1,24C148.2,24,148.2,24,148.1,24L148.1,24z"/>
			<path class="st1" d="M148.2,59.8L148.2,59.8L148.2,59.8L148.2,59.8z"/>
		</g>
		<path class="st1" d="M23.1,40.6c2.8-1.1,4.9-3.5,4.9-7.5c0-5.2-4.4-8.5-9.1-8.5l0,0H5c-2.1,0-3.8,1.7-3.8,3.8V55
			c0,2.1,1.7,3.8,3.8,3.8c0.1,0,0.2,0,0.2,0h13.4c5.3,0,10.3-3.8,10.3-9.5C28.9,45.4,26.9,42.1,23.1,40.6z M8.8,30.9H17
			c2,0,3.6,1.6,3.6,3.6S19,38.1,17,38.1H8.8V30.9z M17,52.9H8.9v-8.8H17l0,0c2.4,0,4.4,2,4.4,4.4C21.4,50.9,19.4,52.9,17,52.9z"/>
		<path class="st1" d="M166.4,28.3c-0.1-0.1-0.2-0.2-0.3-0.3l-0.1-0.1c0.5,0,1-0.4,1-0.9v-0.2c0-0.6-0.5-1.1-1-1.1
			c-0.4,0-0.8,0-1.1,0H164v3.9h0.8v-1.5h0.4c0.1,0,0.3,0.1,0.3,0.2l0.7,1.3h0.9L166.4,28.3z M165.7,27.3h-0.9v-0.9h0.9
			c0.2,0,0.3,0.1,0.3,0.3V27C166,27.2,165.9,27.3,165.7,27.3z"/>
	</g>
</g>
</svg>
